{"title":"Tombstone [DVDRip-XviD-Ita/Eng-Ac3-Sub-Ita/Eng][Nautilus-Bt]","uid":6119911,"size":1477204444,"categoryP":"video","categoryS":"movies","magnet":"?xt=urn:btih:e9f7c177dd82e76c0d31a5d9e03b350d74937604&amp;dn=Tombstone+%5BDVDRip-XviD-Ita%2FEng-Ac3-Sub-Ita%2FEng%5D%5BNautilus-Bt%5D&amp;tr=udp%3A%2F%2Ftracker.openbittorrent.com%3A80&amp;tr=udp%3A%2F%2Fopen.demonii.com%3A1337&amp;tr=udp%3A%2F%2Ftracker.coppersurfer.tk%3A6969&amp;tr=udp%3A%2F%2Fexodus.desync.com%3A6969","seeders":1,"leechers":0,"uploader":"maxneb","files":3,"time":1295703134,"description":"Tombstone [DVDRip-XviD-Ita/Eng-Ac3-Sub-Ita/Eng][Nautilus-Bt]\n\n\n\n\nGeneral\nComplete name                    : C:\\Tombstone [DVDRip-XviD-Ita-Eng-Ac3][RiP By MaX].avi\nFormat                           : AVI\nFormat/Info                      : Audio Video Interleave\nFile size                        : 1.38 GiB\nDuration                         : 2h 3mn\nOverall bit rate                 : 1 593 Kbps\nWriting application              : VirtualDubMod 1.5.10.2 (build 2540/release)\nWriting library                  : VirtualDubMod build 2540/release\n\nVideo\nID                               : 0\nFormat                           : MPEG-4 Visual\nFormat profile                   : Advanced Simple@L5\nFormat settings, BVOP            : Yes\nFormat settings, QPel            : No\nFormat settings, GMC             : No warppoints\nFormat settings, Matrix          : Default (H.263)\nCodec ID                         : XVID\nCodec ID/Hint                    : XviD\nDuration                         : 2h 3mn\nBit rate                         : 1 066 Kbps\nWidth                            : 672 pixels\nHeight                           : 288 pixels\nDisplay aspect ratio             : 2.35:1\nFrame rate                       : 25.000 fps\nColor space                      : YUV\nChroma subsampling               : 4:2:0\nBit depth                        : 8 bits\nScan type                        : Progressive\nBits/(Pixel*Frame)               : 0.220\nStream size                      : 943 MiB (67%)\nWriting library                  : XviD 1.2.1 (UTC 2008-12-04)\n\nAudio #1\nID                               : 1\nFormat                           : AC-3\nFormat/Info                      : Audio Coding 3\nMode extension                   : CM (complete main)\nCodec ID                         : 2000\nDuration                         : 2h 3mn\nBit rate mode                    : Constant\nBit rate                         : 256 Kbps\nChannel(s)                       : 6 channels\nChannel positions                : Front: L C R, Side: L R, LFE\nSampling rate                    : 48.0 KHz\nBit depth                        : 16 bits\nStream size                      : 226 MiB (16%)\nAlignment                        : Split accross interleaves\nInterleave, duration             : 40 ms (1.00 video frame)\nInterleave, preload duration     : 500 ms\n\nAudio #2\nID                               : 2\nFormat                           : AC-3\nFormat/Info                      : Audio Coding 3\nMode extension                   : CM (complete main)\nCodec ID                         : 2000\nDuration                         : 2h 3mn\nBit rate mode                    : Constant\nBit rate                         : 256 Kbps\nChannel(s)                       : 6 channels\nChannel positions                : Front: L C R, Side: L R, LFE\nSampling rate                    : 48.0 KHz\nBit depth                        : 16 bits\nStream size                      : 226 MiB (16%)\nAlignment                        : Split accross interleaves\nInterleave, duration             : 40 ms (1.00 video frame)\nInterleave, preload duration     : 500 ms\n","torrent":{"xt":"urn:btih:e9f7c177dd82e76c0d31a5d9e03b350d74937604","amp;dn":"Tombstone+%5BDVDRip-XviD-Ita%2FEng-Ac3-Sub-Ita%2FEng%5D%5BNautilus-Bt%5D","amp;tr":["udp%3A%2F%2Ftracker.openbittorrent.com%3A80","udp%3A%2F%2Fopen.demonii.com%3A1337","udp%3A%2F%2Ftracker.coppersurfer.tk%3A6969","udp%3A%2F%2Fexodus.desync.com%3A6969"],"infoHash":"e9f7c177dd82e76c0d31a5d9e03b350d74937604","infoHashBuffer":{"type":"Buffer","data":[233,247,193,119,221,130,231,108,13,49,165,217,224,59,53,13,116,147,118,4]},"announce":[],"urlList":[]}}